<?xml version="1.0" encoding="utf-8"?>
<!-- Generated by IcoMoon.io -->
<!DOCTYPE svg PUBLIC "-//W3C//DTD SVG 1.1//EN" "http://www.w3.org/Graphics/SVG/1.1/DTD/svg11.dtd">
<svg version="1.1" xmlns="http://www.w3.org/2000/svg" xmlns:xlink="http://www.w3.org/1999/xlink" width="512" height="512" viewBox="0 0 512 512">
<g id="icomoon-ignore">
</g>
<path d="M73.373 118.627l265.371 265.373h-114.744c-17.673 0-32 14.327-32 32s14.327 32 32 32h192c12.942 0 24.611-7.797 29.563-19.754 1.642-3.962 2.42-8.121 2.419-12.246h0.018v-192c0-17.673-14.327-32-32-32s-32 14.327-32 32v114.745l-265.373-265.372c-6.248-6.249-14.437-9.373-22.627-9.373s-16.379 3.124-22.627 9.373c-12.497 12.496-12.497 32.758 0 45.254z"></path>
</svg>
