<?xml version="1.0" encoding="utf-8"?>
<!-- Generated by IcoMoon.io -->
<!DOCTYPE svg PUBLIC "-//W3C//DTD SVG 1.1//EN" "http://www.w3.org/Graphics/SVG/1.1/DTD/svg11.dtd">
<svg version="1.1" xmlns="http://www.w3.org/2000/svg" xmlns:xlink="http://www.w3.org/1999/xlink" width="512" height="512" viewBox="0 0 512 512">
<g id="icomoon-ignore">
</g>
<path d="M393.372 73.372l-265.372 265.372v-114.745c0-17.673-14.327-32-32-32s-32 14.327-32 32v192.001c0 12.943 7.796 24.611 19.754 29.564 3.962 1.641 8.121 2.42 12.246 2.418v0.018l192-0.001c17.672 0 32-14.327 32-31.999 0-17.674-14.328-32-32-32h-114.745l265.372-265.373c6.248-6.248 9.373-14.438 9.373-22.628 0-8.188-3.125-16.379-9.373-22.627-12.496-12.496-32.759-12.496-45.255 0v0z"></path>
</svg>
