<?xml version="1.0" encoding="utf-8"?>
<!-- Generated by IcoMoon.io -->
<!DOCTYPE svg PUBLIC "-//W3C//DTD SVG 1.1//EN" "http://www.w3.org/Graphics/SVG/1.1/DTD/svg11.dtd">
<svg version="1.1" xmlns="http://www.w3.org/2000/svg" xmlns:xlink="http://www.w3.org/1999/xlink" width="512" height="512" viewBox="0 0 512 512">
<g id="icomoon-ignore">
</g>
<path d="M118.627 438.627l265.373-265.372v114.745c0 17.673 14.327 32 32 32s32-14.327 32-32v-192c0-12.942-7.797-24.611-19.754-29.563-3.962-1.642-8.121-2.42-12.246-2.419v-0.018h-192c-17.673 0-32 14.327-32 32 0 17.674 14.327 32 32 32h114.745l-265.372 265.373c-6.249 6.248-9.373 14.438-9.373 22.627s3.124 16.379 9.373 22.627c12.496 12.497 32.758 12.497 45.254 0z"></path>
</svg>
