<svg xmlns="http://www.w3.org/2000/svg" xmlns:xlink="http://www.w3.org/1999/xlink" viewBox="-88 -221 1302 731">
  <defs>
    <style>
      .cls-1 {
        clip-path: url(#clip-Connect_Sift_screen_shot);
      }

      .cls-10, .cls-12, .cls-2, .cls-23 {
        fill: #fff;
      }

      .cls-10, .cls-2 {
        stroke: #dadada;
      }

      .cls-2 {
        stroke-width: 2px;
      }

      .cls-3 {
        fill: #f1f1f1;
      }

      .cls-4 {
        fill: #4584f0;
      }

      .cls-5 {
        fill: #d2d2d2;
      }

      .cls-6 {
        fill: #e11010;
      }

      .cls-7 {
        fill: #6d6d6d;
      }

      .cls-8 {
        fill: #95989a;
        font-size: 11px;
        font-family: Raleway-Regular, Raleway;
      }

      .cls-9 {
        fill: #35ac19;
      }

      .cls-10, .cls-12, .cls-18 {
        stroke-width: 1px;
      }

      .cls-11 {
        fill: #f4f4f4;
      }

      .cls-12, .cls-18 {
        stroke: #c6c6c6;
      }

      .cls-13, .cls-14 {
        fill: #333;
      }

      .cls-13 {
        opacity: 0.2;
      }

      .cls-14 {
        opacity: 0.198;
      }

      .cls-15 {
        fill: #a7a7a7;
        opacity: 0.496;
      }

      .cls-16 {
        fill: #058021;
      }

      .cls-17 {
        fill: #07af2d;
      }

      .cls-18, .cls-22 {
        fill: none;
      }

      .cls-19 {
        fill: #ea9d2d;
      }

      .cls-20 {
        fill: #c47d00;
      }

      .cls-21 {
        stroke: none;
      }
    </style>
    <clipPath id="clip-Connect_Sift_screen_shot">
      <rect x="-88" y="-221" width="1302" height="731"/>
    </clipPath>
  </defs>
  <g id="Connect_Sift_screen_shot" data-name="Connect Sift screen shot" class="cls-1">
    <rect class="cls-23" x="-88" y="-221" width="1302" height="731"/>
    <g id="group-209" transform="translate(-88.029 -220.984)">
      <g id="rectangle-82" class="cls-2">
        <rect class="cls-21" width="1301.785" height="731.984"/>
        <rect class="cls-22" x="1" y="1" width="1299.785" height="729.984"/>
      </g>
      <rect id="rectangle-83" class="cls-3" width="1299.935" height="59.2" transform="translate(1.233 1.233)"/>
      <g id="rectangle-84" class="cls-2" transform="translate(207.2 15.417)">
        <rect class="cls-21" width="659.218" height="30.833"/>
        <rect class="cls-22" x="1" y="1" width="657.218" height="28.833"/>
      </g>
      <rect id="rectangle-85" class="cls-4" width="61.667" height="30.833" transform="translate(804.751 15.417)"/>
      <circle id="ellipse-6" class="cls-5" cx="16.65" cy="16.65" r="16.65" transform="translate(1235.185 14.183)"/>
      <rect id="rectangle-87" class="cls-6" width="117.167" height="30.833" transform="translate(30.833 119.017)"/>
      <rect id="rectangle-88" class="cls-5" width="81.4" height="17.883" transform="translate(30.833 164.034)"/>
      <rect id="rectangle-88-2" data-name="rectangle-88" class="cls-5" width="61.667" height="17.883" transform="translate(30.833 192.4)"/>
      <rect id="rectangle-88-3" data-name="rectangle-88" class="cls-5" width="72.15" height="17.883" transform="translate(30.833 220.15)"/>
      <rect id="rectangle-88-4" data-name="rectangle-88" class="cls-5" width="65.367" height="17.883" transform="translate(30.833 248.517)"/>
      <rect id="rectangle-88-5" data-name="rectangle-88" class="cls-5" width="60.433" height="17.883" transform="translate(30.833 276.267)"/>
      <rect id="rectangle-88-6" data-name="rectangle-88" class="cls-5" width="70.917" height="17.883" transform="translate(30.833 304.634)"/>
      <rect id="rectangle-88-7" data-name="rectangle-88" class="cls-5" width="59.817" height="17.883" transform="translate(30.833 332.384)"/>
      <circle id="ellipse-6-2" data-name="ellipse-6" class="cls-7" cx="11.1" cy="11.1" r="11.1" transform="translate(1190.168 19.733)"/>
      <rect id="rectangle-87-2" data-name="rectangle-87" class="cls-6" width="3.7" height="28.367" transform="translate(0.617 355.817)"/>
      <g id="rs-icon-workshop" transform="translate(37 448.317)">
        <g id="Workshop_icon_8" data-name="Workshop icon 8" transform="translate(0 0)">
          <g id="Workshop_icon_6" transform="translate(9.689 12.919) rotate(-90)">
            <path id="path" class="cls-6" d="M7.536,5.382H5.384L0,0H2.153Z"/>
            <g id="group-292" transform="translate(5.383)">
              <path id="path-2" class="cls-6" d="M7.536,0,2.153,5.382H0L5.383,0Z"/>
            </g>
          </g>
          <g id="Workshop_icon_6-2" transform="translate(0 12.919) rotate(-90)">
            <path id="path-3" class="cls-6" d="M0,5.382,5.384,0H7.537L2.153,5.382Z"/>
            <g id="group-292-2" transform="translate(5.383)">
              <path id="path-4" class="cls-6" d="M0,0H2.153L7.536,5.382H5.383Z"/>
            </g>
          </g>
          <path id="path-5" class="cls-6" d="M4.306,0V2.153L0,6.46V4.306Z" transform="translate(5.383 3.229)"/>
        </g>
      </g>
      <g id="rs-icon-catalogue" transform="translate(36.384 361.367)">
        <g id="Catalogue_icon" data-name="Catalogue icon">
          <path id="path-2-2" data-name="path" class="cls-6" d="M15.524,9.98V7.76L7.762,0,0,7.762v2.22L7.762,2.22Z"/>
          <g id="group-292-2-2" data-name="group-292" transform="translate(0 7.762)">
            <path id="path-3-2" data-name="path" class="cls-6" d="M0,0V2.22L7.762,9.98l7.762-7.76V0L7.762,7.762Z"/>
          </g>
        </g>
      </g>
      <path id="rectangle-89" class="cls-5" d="M.5.5H7.347L3.864,4.656Z" transform="translate(17.968 367.65)"/>
      <path id="rectangle-89-2" data-name="rectangle-89" class="cls-5" d="M.5.5H7.347L3.864,4.656Z" transform="translate(17.968 452.134)"/>
      <text id="Catalogue" class="cls-8" transform="translate(56.117 372.6)"><tspan x="0" y="0">Catalogue</tspan></text>
      <text id="Catalogue-2" data-name="Catalogue" class="cls-8" transform="translate(56.117 401.584)"><tspan x="0" y="0">Taxi</tspan></text>
      <text id="Catalogue-3" data-name="Catalogue" class="cls-8" transform="translate(56.117 428.717)"><tspan x="0" y="0">Homebuyer</tspan></text>
      <text id="Catalogue-4" data-name="Catalogue" class="cls-8" transform="translate(56.117 457.084)"><tspan x="0" y="0">Workshop</tspan></text>
      <text id="Catalogue-5" data-name="Catalogue" class="cls-8" transform="translate(56.117 487.301)"><tspan x="0" y="0">Pixel Tracker</tspan></text>
      <text id="Catalogue-6" data-name="Catalogue" class="cls-8" transform="translate(56.117 516.284)"><tspan x="0" y="0">Connected</tspan></text>
      <rect id="rectangle-88-8" data-name="rectangle-88" class="cls-5" width="59.817" height="17.883" transform="translate(65.367 542.667)"/>
      <circle id="ellipse-7" class="cls-5" cx="14.8" cy="14.8" r="14.8" transform="translate(29.6 537.117)"/>
      <circle id="ellipse-7-2" data-name="ellipse-7" class="cls-9" cx="5.242" cy="5.242" r="5.242" transform="translate(51.183 558.084)"/>
      <rect id="rectangle-90" class="cls-5" width="26.517" height="26.517" transform="translate(161.567 538.351)"/>
      <path id="rectangle-89-3" data-name="rectangle-89" class="cls-5" d="M.5.5H7.411L3.9,4.695Z" transform="translate(791.237 28.464)"/>
      <g id="rectangle-91" class="cls-10" transform="translate(207.2 65.983)">
        <rect class="cls-21" width="1093.968" height="665.384"/>
        <rect class="cls-22" x="0.5" y="0.5" width="1092.968" height="664.384"/>
      </g>
    </g>
    <rect id="rectangle-3" class="cls-11" width="1093.359" height="615.615" transform="translate(119.782 -153.843)"/>
    <g id="group-13" transform="translate(119.782 -151.998)">
      <rect id="rectangle-8" class="cls-11" width="1093.359" height="59.675" transform="translate(0 0.962)"/>
      <g id="group-12" transform="translate(18.448 23.208)">
        <g id="rectangle" class="cls-12">
          <rect class="cls-21" width="14.649" height="14.652"/>
          <rect class="cls-22" x="0.5" y="0.5" width="13.649" height="13.652"/>
        </g>
        <rect id="rectangle-10" class="cls-13" width="121.757" height="14.652" transform="translate(81.172)"/>
        <rect id="rectangle-10-2" data-name="rectangle-10" class="cls-13" width="468.581" height="14.652" transform="translate(216.459)"/>
        <rect id="rectangle-10-3" data-name="rectangle-10" class="cls-14" width="63.954" height="14.652" transform="translate(996.197)"/>
        <rect id="rectangle-10-4" data-name="rectangle-10" class="cls-15" width="26.946" height="14.652" transform="translate(956.841)"/>
        <g id="Up-arrow-green" transform="translate(39.653)">
          <path id="path-4-2" data-name="path" class="cls-16" d="M2,15.013,12.216,5V19.3H2Z" transform="translate(-2 -5)"/>
          <path id="path-5-2" data-name="path" class="cls-17" d="M12,19.3H22.216v-4.29L12,5Z" transform="translate(-1.784 -5)"/>
        </g>
      </g>
    </g>
    <g id="group-13-2" data-name="group-13" transform="translate(119.782 -90.502)">
      <line id="line-3" class="cls-18" x2="1093.359" transform="translate(0.616)"/>
      <rect id="rectangle-8-2" data-name="rectangle-8" class="cls-11" width="1093.359" height="59.675" transform="translate(0 0.962)"/>
      <g id="group-12-2" data-name="group-12" transform="translate(18.448 23.208)">
        <g id="rectangle-2" data-name="rectangle" class="cls-12">
          <rect class="cls-21" width="14.649" height="14.652"/>
          <rect class="cls-22" x="0.5" y="0.5" width="13.649" height="13.652"/>
        </g>
        <rect id="rectangle-10-5" data-name="rectangle-10" class="cls-13" width="121.757" height="14.652" transform="translate(81.172)"/>
        <rect id="rectangle-10-6" data-name="rectangle-10" class="cls-13" width="341.905" height="14.652" transform="translate(216.459)"/>
        <rect id="rectangle-10-7" data-name="rectangle-10" class="cls-14" width="63.954" height="14.652" transform="translate(996.197)"/>
        <rect id="rectangle-10-8" data-name="rectangle-10" class="cls-15" width="26.946" height="14.652" transform="translate(956.841)"/>
      </g>
    </g>
    <g id="group-13-3" data-name="group-13" transform="translate(119.782 -29.008)">
      <line id="line-3-2" data-name="line-3" class="cls-18" x2="1093.359" transform="translate(0.616)"/>
      <rect id="rectangle-8-3" data-name="rectangle-8" class="cls-11" width="1093.359" height="59.675" transform="translate(0 0.962)"/>
      <g id="group-12-3" data-name="group-12" transform="translate(18.448 23.208)">
        <g id="rectangle-3-2" data-name="rectangle" class="cls-12">
          <rect class="cls-21" width="14.649" height="14.652"/>
          <rect class="cls-22" x="0.5" y="0.5" width="13.649" height="13.652"/>
        </g>
        <rect id="rectangle-10-9" data-name="rectangle-10" class="cls-13" width="121.757" height="14.652" transform="translate(81.172)"/>
        <rect id="rectangle-10-10" data-name="rectangle-10" class="cls-13" width="412.009" height="14.652" transform="translate(216.459)"/>
        <rect id="rectangle-10-11" data-name="rectangle-10" class="cls-14" width="63.954" height="14.652" transform="translate(996.197)"/>
        <rect id="rectangle-10-12" data-name="rectangle-10" class="cls-15" width="26.946" height="14.652" transform="translate(956.841)"/>
        <g id="Up-arrow-green-2" data-name="Up-arrow-green" transform="translate(39.653)">
          <path id="path-6" data-name="path" class="cls-16" d="M2,15.013,12.216,5V19.3H2Z" transform="translate(-2 -5)"/>
          <path id="path-7" data-name="path" class="cls-17" d="M12,19.3H22.216v-4.29L12,5Z" transform="translate(-1.784 -5)"/>
        </g>
      </g>
    </g>
    <g id="group-13-4" data-name="group-13" transform="translate(119.782 32.484)">
      <line id="line-3-3" data-name="line-3" class="cls-18" x2="1093.359" transform="translate(0.616)"/>
      <rect id="rectangle-8-4" data-name="rectangle-8" class="cls-11" width="1093.359" height="59.675" transform="translate(0 0.962)"/>
      <g id="group-12-4" data-name="group-12" transform="translate(18.448 23.208)">
        <g id="rectangle-4" data-name="rectangle" class="cls-12">
          <rect class="cls-21" width="14.649" height="14.652"/>
          <rect class="cls-22" x="0.5" y="0.5" width="13.649" height="13.652"/>
        </g>
        <rect id="rectangle-10-13" data-name="rectangle-10" class="cls-13" width="121.757" height="14.652" transform="translate(81.172)"/>
        <rect id="rectangle-10-14" data-name="rectangle-10" class="cls-13" width="212.769" height="14.652" transform="translate(216.459)"/>
        <rect id="rectangle-10-15" data-name="rectangle-10" class="cls-14" width="63.954" height="14.652" transform="translate(996.197)"/>
        <rect id="rectangle-10-16" data-name="rectangle-10" class="cls-15" width="26.946" height="14.652" transform="translate(956.841)"/>
        <g id="Up-arrow-green-3" data-name="Up-arrow-green" transform="translate(39.653)">
          <path id="path-8" data-name="path" class="cls-16" d="M2,15.013,12.216,5V19.3H2Z" transform="translate(-2 -5)"/>
          <path id="path-9" data-name="path" class="cls-17" d="M12,19.3H22.216v-4.29L12,5Z" transform="translate(-1.784 -5)"/>
        </g>
      </g>
    </g>
    <g id="group-13-5" data-name="group-13" transform="translate(119.782 93.977)">
      <line id="line-3-4" data-name="line-3" class="cls-18" x2="1093.359" transform="translate(0.616)"/>
      <rect id="rectangle-8-5" data-name="rectangle-8" class="cls-11" width="1093.359" height="59.675" transform="translate(0 0.962)"/>
      <g id="group-12-5" data-name="group-12" transform="translate(18.448 23.208)">
        <g id="rectangle-5" data-name="rectangle" class="cls-12">
          <rect class="cls-21" width="14.649" height="14.652"/>
          <rect class="cls-22" x="0.5" y="0.5" width="13.649" height="13.652"/>
        </g>
        <rect id="rectangle-10-17" data-name="rectangle-10" class="cls-13" width="121.757" height="14.652" transform="translate(81.172)"/>
        <rect id="rectangle-10-18" data-name="rectangle-10" class="cls-13" width="469.812" height="14.652" transform="translate(216.459)"/>
        <rect id="rectangle-10-19" data-name="rectangle-10" class="cls-14" width="63.954" height="14.652" transform="translate(996.197)"/>
        <rect id="rectangle-10-20" data-name="rectangle-10" class="cls-15" width="26.946" height="14.652" transform="translate(956.841)"/>
      </g>
    </g>
    <g id="group-13-6" data-name="group-13" transform="translate(119.782 155.473)">
      <line id="line-3-5" data-name="line-3" class="cls-18" x2="1093.359" transform="translate(0.616)"/>
      <rect id="rectangle-8-6" data-name="rectangle-8" class="cls-11" width="1093.359" height="59.675" transform="translate(0 0.962)"/>
      <g id="group-12-6" data-name="group-12" transform="translate(18.448 23.208)">
        <g id="rectangle-6" data-name="rectangle" class="cls-12">
          <rect class="cls-21" width="14.649" height="14.652"/>
          <rect class="cls-22" x="0.5" y="0.5" width="13.649" height="13.652"/>
        </g>
        <rect id="rectangle-10-21" data-name="rectangle-10" class="cls-13" width="121.757" height="14.652" transform="translate(81.172)"/>
        <rect id="rectangle-10-22" data-name="rectangle-10" class="cls-13" width="349.284" height="14.652" transform="translate(216.459)"/>
        <rect id="rectangle-10-23" data-name="rectangle-10" class="cls-14" width="63.954" height="14.652" transform="translate(996.197)"/>
        <rect id="rectangle-10-24" data-name="rectangle-10" class="cls-15" width="26.946" height="14.652" transform="translate(956.841)"/>
        <g id="Up-arrow-green-4" data-name="Up-arrow-green" transform="translate(39.653)">
          <path id="path-10" data-name="path" class="cls-16" d="M2,15.013,12.216,5V19.3H2Z" transform="translate(-2 -5)"/>
          <path id="path-11" data-name="path" class="cls-17" d="M12,19.3H22.216v-4.29L12,5Z" transform="translate(-1.784 -5)"/>
        </g>
      </g>
    </g>
    <g id="group-13-7" data-name="group-13" transform="translate(119.782 216.966)">
      <line id="line-3-6" data-name="line-3" class="cls-18" x2="1093.359" transform="translate(0.616)"/>
      <rect id="rectangle-8-7" data-name="rectangle-8" class="cls-11" width="1093.359" height="59.675" transform="translate(0 0.962)"/>
      <g id="group-12-7" data-name="group-12" transform="translate(18.448 23.208)">
        <g id="rectangle-7" data-name="rectangle" class="cls-12">
          <rect class="cls-21" width="14.649" height="14.652"/>
          <rect class="cls-22" x="0.5" y="0.5" width="13.649" height="13.652"/>
        </g>
        <rect id="rectangle-10-25" data-name="rectangle-10" class="cls-13" width="121.757" height="14.652" transform="translate(81.172)"/>
        <rect id="rectangle-10-26" data-name="rectangle-10" class="cls-13" width="424.306" height="14.652" transform="translate(216.459)"/>
        <rect id="rectangle-10-27" data-name="rectangle-10" class="cls-14" width="63.954" height="14.652" transform="translate(996.197)"/>
        <rect id="rectangle-10-28" data-name="rectangle-10" class="cls-15" width="26.946" height="14.652" transform="translate(956.841)"/>
      </g>
    </g>
    <g id="group-13-8" data-name="group-13" transform="translate(119.782 278.459)">
      <line id="line-3-7" data-name="line-3" class="cls-18" x2="1093.359" transform="translate(0.616)"/>
      <rect id="rectangle-8-8" data-name="rectangle-8" class="cls-11" width="1093.359" height="59.675" transform="translate(0 0.962)"/>
      <g id="group-12-8" data-name="group-12" transform="translate(18.448 23.208)">
        <g id="rectangle-8-9" data-name="rectangle" class="cls-12">
          <rect class="cls-21" width="14.649" height="14.652"/>
          <rect class="cls-22" x="0.5" y="0.5" width="13.649" height="13.652"/>
        </g>
        <rect id="rectangle-10-29" data-name="rectangle-10" class="cls-13" width="121.757" height="14.652" transform="translate(81.172)"/>
        <rect id="rectangle-10-30" data-name="rectangle-10" class="cls-13" width="394.79" height="14.652" transform="translate(216.459)"/>
        <rect id="rectangle-10-31" data-name="rectangle-10" class="cls-14" width="63.954" height="14.652" transform="translate(996.197)"/>
        <rect id="rectangle-10-32" data-name="rectangle-10" class="cls-15" width="26.946" height="14.652" transform="translate(956.841)"/>
        <g id="Up-arrow-green-5" data-name="Up-arrow-green" transform="translate(39.653)">
          <path id="path-12" data-name="path" class="cls-16" d="M2,15.013,12.216,5V19.3H2Z" transform="translate(-2 -5)"/>
          <path id="path-13" data-name="path" class="cls-17" d="M12,19.3H22.216v-4.29L12,5Z" transform="translate(-1.784 -5)"/>
        </g>
      </g>
    </g>
    <g id="Flat-arrow-amber" transform="translate(173.895 118.651)">
      <rect id="rectangle-9" data-name="rectangle" class="cls-19" width="12.297" height="4.918" transform="translate(12.297)"/>
      <rect id="rectangle-10-33" data-name="rectangle" class="cls-20" width="12.297" height="4.918"/>
    </g>
    <g id="Flat-arrow-amber-2" data-name="Flat-arrow-amber" transform="translate(173.895 364.627)">
      <rect id="rectangle-11" data-name="rectangle" class="cls-19" width="12.297" height="4.918" transform="translate(12.297)"/>
      <rect id="rectangle-12" data-name="rectangle" class="cls-20" width="12.297" height="4.918"/>
    </g>
    <g id="group-13-9" data-name="group-13" transform="translate(119.782 339.952)">
      <line id="line-3-8" data-name="line-3" class="cls-18" x2="1093.359" transform="translate(0.616)"/>
      <rect id="rectangle-8-10" data-name="rectangle-8" class="cls-11" width="1093.359" height="59.675" transform="translate(0 0.962)"/>
      <g id="group-12-9" data-name="group-12" transform="translate(18.448 23.208)">
        <g id="rectangle-13" data-name="rectangle" class="cls-12">
          <rect class="cls-21" width="14.649" height="14.652"/>
          <rect class="cls-22" x="0.5" y="0.5" width="13.649" height="13.652"/>
        </g>
        <rect id="rectangle-10-34" data-name="rectangle-10" class="cls-13" width="121.757" height="14.652" transform="translate(81.172)"/>
        <rect id="rectangle-10-35" data-name="rectangle-10" class="cls-13" width="360.353" height="14.652" transform="translate(216.459)"/>
        <rect id="rectangle-10-36" data-name="rectangle-10" class="cls-14" width="63.954" height="14.652" transform="translate(996.197)"/>
        <rect id="rectangle-10-37" data-name="rectangle-10" class="cls-15" width="26.946" height="14.652" transform="translate(956.841)"/>
      </g>
    </g>
    <g id="group-13-10" data-name="group-13" transform="translate(119.782 401.448)">
      <line id="line-3-9" data-name="line-3" class="cls-18" x2="1093.359" transform="translate(0.616)"/>
      <rect id="rectangle-8-11" data-name="rectangle-8" class="cls-11" width="1093.359" height="59.675" transform="translate(0 0.962)"/>
      <g id="group-12-10" data-name="group-12" transform="translate(18.448 23.208)">
        <g id="rectangle-14" data-name="rectangle" class="cls-12">
          <rect class="cls-21" width="14.649" height="14.652"/>
          <rect class="cls-22" x="0.5" y="0.5" width="13.649" height="13.652"/>
        </g>
        <rect id="rectangle-10-38" data-name="rectangle-10" class="cls-13" width="121.757" height="14.652" transform="translate(81.172)"/>
        <rect id="rectangle-10-39" data-name="rectangle-10" class="cls-13" width="420.617" height="14.652" transform="translate(216.459)"/>
        <rect id="rectangle-10-40" data-name="rectangle-10" class="cls-14" width="63.954" height="14.652" transform="translate(996.197)"/>
        <rect id="rectangle-10-41" data-name="rectangle-10" class="cls-15" width="26.946" height="14.652" transform="translate(956.841)"/>
        <g id="Up-arrow-green-6" data-name="Up-arrow-green" transform="translate(39.653)">
          <path id="path-14" data-name="path" class="cls-16" d="M2,15.013,12.216,5V19.3H2Z" transform="translate(-2 -5)"/>
          <path id="path-15" data-name="path" class="cls-17" d="M12,19.3H22.216v-4.29L12,5Z" transform="translate(-1.784 -5)"/>
        </g>
      </g>
    </g>
    <g id="group-13-11" data-name="group-13" transform="translate(119.782 462.448)">
      <line id="line-3-10" data-name="line-3" class="cls-18" x2="1093.359" transform="translate(0.616)"/>
      <rect id="rectangle-8-12" data-name="rectangle-8" class="cls-11" width="1093.359" height="59.675" transform="translate(0 0.962)"/>
      <g id="group-12-11" data-name="group-12" transform="translate(18.448 23.208)">
        <g id="rectangle-15" data-name="rectangle" class="cls-12">
          <rect class="cls-21" width="14.649" height="14.652"/>
          <rect class="cls-22" x="0.5" y="0.5" width="13.649" height="13.652"/>
        </g>
        <rect id="rectangle-10-42" data-name="rectangle-10" class="cls-13" width="121.757" height="14.652" transform="translate(81.172)"/>
        <rect id="rectangle-10-43" data-name="rectangle-10" class="cls-13" width="420.617" height="14.652" transform="translate(216.459)"/>
        <rect id="rectangle-10-44" data-name="rectangle-10" class="cls-14" width="63.954" height="14.652" transform="translate(996.197)"/>
        <rect id="rectangle-10-45" data-name="rectangle-10" class="cls-15" width="26.946" height="14.652" transform="translate(956.841)"/>
        <g id="Up-arrow-green-7" data-name="Up-arrow-green" transform="translate(39.653)">
          <path id="path-16" data-name="path" class="cls-16" d="M2,15.013,12.216,5V19.3H2Z" transform="translate(-2 -5)"/>
          <path id="path-17" data-name="path" class="cls-17" d="M12,19.3H22.216v-4.29L12,5Z" transform="translate(-1.784 -5)"/>
        </g>
      </g>
    </g>
    <g id="Flat-arrow-amber-3" data-name="Flat-arrow-amber" transform="translate(173.895 364.651)">
      <rect id="rectangle-16" data-name="rectangle" class="cls-19" width="12.297" height="4.918" transform="translate(12.297)"/>
      <rect id="rectangle-17" data-name="rectangle" class="cls-20" width="12.297" height="4.918"/>
    </g>
    <g id="Flat-arrow-amber-4" data-name="Flat-arrow-amber" transform="translate(173.895 241.651)">
      <rect id="rectangle-18" data-name="rectangle" class="cls-19" width="12.297" height="4.918" transform="translate(12.297)"/>
      <rect id="rectangle-19" data-name="rectangle" class="cls-20" width="12.297" height="4.918"/>
    </g>
    <g id="Flat-arrow-amber-5" data-name="Flat-arrow-amber" transform="translate(173.895 -65.349)">
      <rect id="rectangle-20" data-name="rectangle" class="cls-19" width="12.297" height="4.918" transform="translate(12.297)"/>
      <rect id="rectangle-21" data-name="rectangle" class="cls-20" width="12.297" height="4.918"/>
    </g>
  </g>
</svg>
